<?xml version="1.0" encoding="UTF-8"?>
<svg id="Layer_2" data-name="Layer 2" xmlns="http://www.w3.org/2000/svg" width="1262.64" height="265.81" viewBox="0 0 1262.64 265.81">
  <g id="Layer_1" data-name="Layer 1">
    <g>
      <g>
        <polygon points="740.68 0 607.78 199.36 674.23 166.13 740.68 67.53 740.68 0" fill="#ff0"/>
        <polygon points="607.78 265.81 740.68 132.9 674.23 166.13 607.78 265.81" fill="#ff0"/>
      </g>
      <g>
        <g>
          <polygon points="17.35 257.61 2.66 239.81 26.83 103.21 66.7 103.21 81.39 121.01 66.7 204.61 108.1 204.61 122.79 222.41 116.62 257.61 17.35 257.61" fill="#fff"/>
          <path d="M65.52,105.71l13.2,16-15,85.4h43.2l13.2,16-5.6,32H18.53l-13.2-16L28.93,105.71h36.6M10.73,234.51h86.8l4-22.8h-59.4l17.8-101.2h-27.2l-22,124M54.52,115.11l-17.8,101.4h59.2l-2.2,13.2H16.33l20.2-114.6h18M67.88,100.71H24.73l-.73,4.13L.4,238.24l-.4,2.27,1.47,1.78,13.2,16,1.5,1.82h102.56l.72-4.14,5.6-32,.4-2.27-1.47-1.78-13.2-16-1.5-1.82h-39.6l13.97-79.53.4-2.27-1.47-1.78-13.2-16-1.5-1.82h0Z"/>
        </g>
        <g>
          <polygon points="198.14 257.61 183.46 239.81 189.33 207.01 174.42 207.01 165.42 257.61 125.54 257.61 110.86 239.81 135.03 103.21 247.5 103.21 262.18 121.01 238.22 257.61 198.14 257.61" fill="#fff"/>
          <path d="M246.32,105.71l13.2,16-23.4,133.4h-36.8l-13.2-16,6.2-34.6h-20l-9,50.6h-36.6l-13.2-16,23.6-133.4h109.2M240.92,110.51h-100l-22,124h27.4l9-50.8h45.2l-8.8,50.8h27.2l22-124M235.32,115.11l-20.2,114.6h-18l9-50.6h-54.6l-9,50.6h-18l20.2-114.6h90.6M215.12,128.51h-54.8l-6.6,37.2h54.8l6.6-37.2M209.52,133.11l-5,28h-45.2l4.8-28h45.4M201.32,153.71h-20l-.6,2.8h20l.6-2.8M248.68,100.71h-115.75l-.73,4.13-23.6,133.4-.4,2.27,1.47,1.78,13.2,16,1.5,1.82h43.15l.73-4.12,8.27-46.48h9.83l-5.15,28.72-.41,2.28,1.47,1.79,13.2,16,1.5,1.82h43.36l.73-4.14,23.4-133.4.4-2.27-1.47-1.78-13.2-16-1.5-1.82h0Z"/>
        </g>
        <g>
          <polygon points="246.14 257.61 231.46 239.81 237.62 204.61 253.16 204.61 240.46 189.21 255.62 103.21 368.1 103.21 382.78 121.01 376.62 156.21 361.1 156.21 373.78 171.82 358.82 257.61 246.14 257.61" fill="#fff"/>
          <path d="M366.92,105.71l13.2,16-5.6,32h-72.6l-.6,2.8h56.8l13,16-14.4,82.6h-109.4l-13.2-16,5.6-32h72.8l.4-2.6h-56.6l-13.2-16,14.6-82.8h109.2M361.52,110.51h-100l-13,73.2h72.6l-4.8,28h-72.8l-4,22.8h100l13-73.4h-72.6l4.8-28h72.8l4-22.6M355.92,115.11l-2.2,13.4h-72.8l-6.6,37.2h72.8l-11.4,64h-90.6l2.4-13.2h72.6l6.6-37.4h-72.6l11.2-64h90.6M369.28,100.71h-115.75l-.73,4.13-14.6,82.8-.4,2.27,1.47,1.78,8.59,10.42h-12.34l-.72,4.14-5.6,32-.4,2.27,1.47,1.78,13.2,16,1.5,1.82h115.96l.72-4.14,14.4-82.6.39-2.24-1.44-1.77-8.65-10.65h12.37l.72-4.14,5.6-32,.4-2.27-1.47-1.78-13.2-16-1.5-1.82h0Z"/>
        </g>
        <g>
          <polygon points="366.74 257.61 352.06 239.81 376.22 103.21 488.7 103.21 503.38 121.01 497.22 156.21 474.91 156.21 487.78 171.81 481.62 207.01 472.88 207.01 485.58 222.41 479.42 257.61 366.74 257.61" fill="#fff"/>
          <path d="M487.52,105.71l13.2,16-5.6,32h-72.6l-.6,2.8h50l13.2,16-5.6,32h-66l-.4,2.6h56.6l13.2,16-5.6,32h-109.4l-13.2-16,23.6-133.4h109.2M482.12,110.51h-100l-22,124h100l4-22.8h-72.6l5-28h66l4-22.6h-66l4.8-28h72.8l4-22.6M476.52,115.11l-2.2,13.4h-72.8l-6.6,37.2h66l-2.2,13.4h-66l-6.6,37.4h72.6l-2.4,13.2h-90.6l20.2-114.6h90.6M489.88,100.71h-115.75l-.73,4.13-23.6,133.4-.4,2.27,1.47,1.78,13.2,16,1.5,1.82h115.96l.72-4.14,5.6-32,.4-2.27-1.47-1.78-8.59-10.42h5.54l.72-4.14,5.6-32,.4-2.27-1.47-1.78-8.76-10.62h19.1l.72-4.14,5.6-32,.4-2.27-1.47-1.78-13.2-16-1.5-1.82h0Z"/>
        </g>
        <g>
          <polygon points="560.94 257.61 546.42 240.01 546.42 207.01 536.21 207.01 527.21 257.61 487.34 257.61 472.66 239.81 496.82 103.21 609.3 103.21 623.98 121.01 608.82 207.01 601.22 207.01 601.22 257.61 560.94 257.61" fill="#fff"/>
          <path d="M608.12,105.71l13.2,16-14.6,82.8h-8v50.6h-36.6l-13.2-16v-34.6h-14.8l-9,50.6h-36.6l-13.2-16,23.6-133.4h109.2M602.72,110.51h-100l-22,124h27.4l9-50.8h36.4v50.8h27.4v-50.8h8.8l13-73.2M597.12,115.11l-11.2,64h-9.6v50.6h-18v-50.6h-45l-9,50.6h-18l20.2-114.6h90.6M576.92,128.51h-54.8l-6.6,37.2h54.8l6.6-37.2M571.32,133.11l-5,28h-45.2l4.8-28h45.4M563.12,153.71h-20l-.6,2.8h20l.6-2.8M610.48,100.71h-115.75l-.73,4.13-23.6,133.4-.4,2.27,1.47,1.78,13.2,16,1.5,1.82h43.14l.73-4.12,8.27-46.48h5.61v31.4l1.14,1.39,13.2,16,1.5,1.82h43.96v-50.6h7.2l.73-4.13,14.6-82.8.4-2.27-1.47-1.78-13.2-16-1.5-1.82h0Z"/>
        </g>
        <g>
          <polygon points="732.34 257.61 717.66 239.81 741.82 103.21 854.3 103.21 868.98 121.01 862.82 156.21 840.51 156.21 853.38 171.81 847.22 207.01 781.21 207.01 772.21 257.61 732.34 257.61" fill="#fff"/>
          <path d="M853.12,105.71l13.2,16-5.6,32h-72.6l-.6,2.8h50l13.2,16-5.6,32h-66l-9,50.6h-36.6l-13.2-16,23.6-133.4h109.2M847.72,110.51h-100l-22,124h27.4l9-50.8h66l4-22.6h-66l4.8-28h72.8l4-22.6M842.12,115.11l-2.2,13.4h-72.8l-6.6,37.2h66l-2.2,13.4h-66l-9,50.6h-18l20.2-114.6h90.6M855.47,100.71h-115.75l-.73,4.13-23.6,133.4-.4,2.27,1.47,1.78,13.2,16,1.5,1.82h43.14l.73-4.12,8.27-46.48h66.01l.72-4.14,5.6-32,.4-2.27-1.47-1.78-8.76-10.62h19.1l.72-4.14,5.6-32,.4-2.27-1.47-1.78-13.2-16-1.5-1.82h0Z"/>
        </g>
        <g>
          <polygon points="852.94 257.61 838.26 239.81 862.42 103.21 902.3 103.21 916.98 121.01 902.3 204.61 943.7 204.61 958.38 222.41 952.22 257.61 852.94 257.61" fill="#fff"/>
          <path d="M901.12,105.71l13.2,16-15,85.4h43.2l13.2,16-5.6,32h-96l-13.2-16,23.6-133.4h36.6M846.32,234.51h86.8l4-22.8h-59.4l17.8-101.2h-27.2l-22,124M890.12,115.11l-17.8,101.4h59.2l-2.2,13.2h-77.4l20.2-114.6h18M903.48,100.71h-43.15l-.73,4.13-23.6,133.4-.4,2.27,1.47,1.78,13.2,16,1.5,1.82h102.56l.72-4.14,5.6-32,.4-2.27-1.47-1.78-13.2-16-1.5-1.82h-39.6l13.97-79.53.4-2.27-1.47-1.78-13.2-16-1.5-1.82h0Z"/>
        </g>
        <g>
          <path d="M961.14,257.61l-14.68-17.8,24.17-136.6h112.47l14.68,17.8-23.96,136.6h-112.68ZM1025.42,204.61l8.52-48.4h-14.92l-8.52,48.4h14.92Z" fill="#fff"/>
          <path d="M1081.91,105.71l13.2,16-23.4,133.4h-109.4l-13.2-16,23.6-133.4h109.2M1076.52,110.51h-100l-22,124h100l22-124M1070.91,115.11l-20.2,114.6h-90.6l20.2-114.6h90.6M1050.72,128.51h-54.8l-15.4,88h54.6l15.6-88M1045.11,133.11l-13.8,78.6h-45.4l13.8-78.6h45.4M1036.92,153.71h-20l-9.4,53.4h20l9.4-53.4M1084.27,100.71h-115.75l-.73,4.13-23.6,133.4-.4,2.27,1.47,1.78,13.2,16,1.5,1.82h115.95l.73-4.14,23.4-133.4.4-2.27-1.47-1.78-13.2-16-1.5-1.82h0ZM1021.11,158.71h9.85l-7.64,43.4h-9.85l7.64-43.4h0Z"/>
        </g>
        <g>
          <polygon points="1105.74 257.61 1091.6 240.47 1073.71 203.47 1091.42 103.21 1131.29 103.21 1145.98 121.01 1131.29 204.61 1132.62 204.61 1150.42 103.21 1186.29 103.21 1200.97 121.01 1188.16 193.98 1189.76 191.88 1205.42 103.21 1245.29 103.21 1259.97 121.01 1242.07 222.74 1215.55 257.61 1105.74 257.61" fill="#fff"/>
          <path d="M1244.11,105.71l13.2,16-17.6,100-25.4,33.4h-107.4l-13.2-16-17.4-36,17.2-97.4h36.6l13.2,16-15,85.4h6.4l17.8-101.4h32.6l13.2,16-14.4,82,8.2-10.8,15.4-87.2h36.6M1238.71,110.51h-27.4l-14.8,84.6-12.8,16.6h-21.8l17.8-101.2h-23.4l-17.8,101.2h-23l-6.4-13,15.6-88.2h-27.4l-16.2,91.8,15.6,32.2h102l23.6-30.8,16.4-93.2M1233.31,115.11l-15.4,86.6-21.4,28h-97l-13.6-28.2,15.4-86.4h18l-15,84.2,8.2,17.2h29.8l18-101.4h14l-18,101.4h29.6l14.8-19.4,14.6-82h18M1246.47,100.71h-43.15l-.73,4.13-2.06,11.69-11.55-14-1.5-1.82h-39.16l-.73,4.14-2.05,11.7-11.56-14.02-1.5-1.82h-43.15l-.73,4.13-17.2,97.4-.28,1.59.7,1.45,17.4,36,.26.54.38.46,13.2,16,1.5,1.82h112.23l1.5-1.97,25.4-33.4.73-.97.21-1.19,17.6-100,.4-2.27-1.47-1.78-13.2-16-1.5-1.82h0Z"/>
        </g>
      </g>
    </g>
  </g>
</svg>