<?xml version="1.0" encoding="UTF-8"?>
<svg id="Layer_2" data-name="Layer 2" xmlns="http://www.w3.org/2000/svg" width="1254.12" height="265.81" viewBox="0 0 1254.12 265.81">
  <g id="Layer_1" data-name="Layer 1">
    <g>
      <g>
        <polygon points="736.42 0 603.52 199.36 669.97 166.13 736.42 67.53 736.42 0" fill="#ff0"/>
        <polygon points="603.52 265.81 736.42 132.9 669.97 166.13 603.52 265.81" fill="#ff0"/>
      </g>
      <g>
        <path d="M115.86,223.11l-5.6,32H14.26l-13.2-16L24.66,105.71h36.6l13.2,16-15,85.4h43.2l13.2,16ZM97.26,211.71h-59.4l17.8-101.2h-27.2L6.47,234.51h86.8l4-22.8ZM91.66,216.51l-2.2,13.2H12.07l20.2-114.6h18l-17.8,101.4h59.2Z" stroke="#fff" stroke-miterlimit="10" stroke-width="2"/>
        <path d="M255.26,121.71l-23.4,133.4h-36.8l-13.2-16,6.2-34.6h-20l-9,50.6h-36.6l-13.2-16,23.6-133.4h109.2l13.2,16ZM236.66,110.51h-100l-22,124h27.4l9-50.8h45.2l-8.8,50.8h27.2l22-124ZM231.06,115.11l-20.2,114.6h-18l9-50.6h-54.6l-9,50.6h-18l20.2-114.6h90.6ZM210.86,128.51h-54.8l-6.6,37.2h54.8l6.6-37.2ZM205.26,133.11l-5,28h-45.2l4.8-28h45.4ZM197.06,153.71h-20l-.6,2.8h20l.6-2.8Z" stroke="#fff" stroke-miterlimit="10" stroke-width="2"/>
        <path d="M375.86,121.71l-5.6,32h-72.6l-.6,2.8h56.8l13,16-14.4,82.6h-109.4l-13.2-16,5.6-32h72.8l.4-2.6h-56.6l-13.2-16,14.6-82.8h109.2l13.2,16ZM357.26,110.51h-100l-13,73.2h72.6l-4.8,28h-72.8l-4,22.8h100l13-73.4h-72.6l4.8-28h72.8l4-22.6ZM351.66,115.11l-2.2,13.4h-72.8l-6.6,37.2h72.8l-11.4,64h-90.6l2.4-13.2h72.6l6.6-37.4h-72.6l11.2-64h90.6Z" stroke="#fff" stroke-miterlimit="10" stroke-width="2"/>
        <path d="M496.46,121.71l-5.6,32h-72.6l-.6,2.8h50l13.2,16-5.6,32h-66l-.4,2.6h56.6l13.2,16-5.6,32h-109.4l-13.2-16,23.6-133.4h109.2l13.2,16ZM477.86,110.51h-100l-22,124h100l4-22.8h-72.6l5-28h66l4-22.6h-66l4.8-28h72.8l4-22.6ZM472.26,115.11l-2.2,13.4h-72.8l-6.6,37.2h66l-2.2,13.4h-66l-6.6,37.4h72.6l-2.4,13.2h-90.6l20.2-114.6h90.6Z" stroke="#fff" stroke-miterlimit="10" stroke-width="2"/>
        <path d="M617.06,121.71l-14.6,82.8h-8v50.6h-36.6l-13.2-16v-34.6h-14.8l-9,50.6h-36.6l-13.2-16,23.6-133.4h109.2l13.2,16ZM598.46,110.51h-100l-22,124h27.4l9-50.8h36.4v50.8h27.4v-50.8h8.8l13-73.2ZM592.86,115.11l-11.2,64h-9.6v50.6h-18v-50.6h-45l-9,50.6h-18l20.2-114.6h90.6ZM572.66,128.51h-54.8l-6.6,37.2h54.8l6.6-37.2ZM567.06,133.11l-5,28h-45.2l4.8-28h45.4ZM558.86,153.71h-20l-.6,2.8h20l.6-2.8Z" stroke="#fff" stroke-miterlimit="10" stroke-width="2"/>
        <path d="M862.06,121.71l-5.6,32h-72.6l-.6,2.8h50l13.2,16-5.6,32h-66l-9,50.6h-36.6l-13.2-16,23.6-133.4h109.2l13.2,16ZM843.46,110.51h-100l-22,124h27.4l9-50.8h66l4-22.6h-66l4.8-28h72.8l4-22.6ZM837.86,115.11l-2.2,13.4h-72.8l-6.6,37.2h66l-2.2,13.4h-66l-9,50.6h-18l20.2-114.6h90.6Z" stroke="#fff" stroke-miterlimit="10" stroke-width="2"/>
        <path d="M951.46,223.11l-5.6,32h-96l-13.2-16,23.6-133.4h36.6l13.2,16-15,85.4h43.2l13.2,16ZM932.86,211.71h-59.4l17.8-101.2h-27.2l-22,124h86.8l4-22.8ZM927.26,216.51l-2.2,13.2h-77.4l20.2-114.6h18l-17.8,101.4h59.2Z" stroke="#fff" stroke-miterlimit="10" stroke-width="2"/>
        <path d="M1090.85,121.71l-23.4,133.4h-109.4l-13.2-16,23.6-133.4h109.2l13.2,16ZM1072.25,110.51h-100l-22,124h100l22-124ZM1066.65,115.11l-20.2,114.6h-90.6l20.2-114.6h90.6ZM1046.45,128.51h-54.8l-15.4,88h54.6l15.6-88ZM1040.85,133.11l-13.8,78.6h-45.4l13.8-78.6h45.4ZM1032.65,153.71h-20l-9.4,53.4h20l9.4-53.4Z" stroke="#fff" stroke-miterlimit="10" stroke-width="2"/>
        <path d="M1253.05,121.71l-17.6,100-25.4,33.4h-107.4l-13.2-16-17.4-36,17.2-97.4h36.6l13.2,16-15,85.4h6.4l17.8-101.4h32.6l13.2,16-14.4,82,8.2-10.8,15.4-87.2h36.6l13.2,16ZM1234.45,110.51h-27.4l-14.8,84.6-12.8,16.6h-21.8l17.8-101.2h-23.4l-17.8,101.2h-23l-6.4-13,15.6-88.2h-27.4l-16.2,91.8,15.6,32.2h102l23.6-30.8,16.4-93.2ZM1229.05,115.11l-15.4,86.6-21.4,28h-97l-13.6-28.2,15.4-86.4h18l-15,84.2,8.2,17.2h29.8l18-101.4h14l-18,101.4h29.6l14.8-19.4,14.6-82h18Z" stroke="#fff" stroke-miterlimit="10" stroke-width="2"/>
      </g>
    </g>
  </g>
</svg>
